<?xml version="1.0" encoding="utf-8" ?>
<svg baseProfile="full" height="200mm" version="1.1" viewBox="0,0,200,200" width="200mm" xmlns="http://www.w3.org/2000/svg" xmlns:ev="http://www.w3.org/2001/xml-events" xmlns:xlink="http://www.w3.org/1999/xlink"><defs /><rect fill="#1a1a1a" height="200" width="200" x="0" y="0" /><text alignment-baseline="middle" fill="#e1ed5e" style="dominant-baseline: central; font-size:9.0px; font-family:Arial;" text-anchor="middle" x="100.0" y="100.0">2025</text><line stroke="#e1ed5e" stroke-width="0.3" x1="100.0" x2="100.0" y1="15.0" y2="10.0" /><path d="M 100.0 14.0 a86.0,86.0 0 0,1 42.46469731375804,11.215312516191453" fill="none" id="id13" stroke="none" /><text fill="#e1ed5e" style="font-size:6.75px; font-family:Arial;" text-anchor="middle"><textPath startOffset="22.20632615414155" xlink:href="#id13">January</textPath></text><path d="M 100.0 79.0 l 0.0 -35.837899603003954 a56.837899603003954,56.837899603003954 0 0,0 0.9783710090160819,0.008421148157352568 l -0.6168905297435535 35.83258983145516" fill="#a3ff22" stroke="none" /><path d="M 100.72285384407766 79.0124445844662 l 0.6615267716373608 -19.206966791901934 a40.21835557519989,40.21835557519989 0 0,0 0.6916775153432895,0.029785088792984988 l -0.9920451193699819 19.192733976584755" fill="#ff4f07" stroke="none" /><path d="M 106.0581310904928 79.89281104454417 l 4.576039316857895 -15.188064740964887 a36.86245398433578,36.86245398433578 0 0,0 0.6059742053890845,0.1882791353456737 l -4.836798894957698 15.107045470736692" fill="#ff1202" stroke="none" /><path d="M 107.08798089147638 80.2323363322302 l 6.4579165407907455 -18.010477754869974 a40.133269323523486,40.133269323523486 0 0,0 0.6482816323365924,0.23876759626331895 l -6.7669804988999145 17.89664689080033" fill="#ff4e07" stroke="none" /><path d="M 107.76421540070413 80.48803036053334 l 7.451228519592915 -18.725413599143558 a41.15345927899688,41.15345927899688 0 0,0 0.6559393639484621,0.2675741362111614 l -7.772451753129765 18.594378576748817" fill="#ff6008" stroke="none" /><path d="M 108.76106565485865 80.91482961587045 l 9.350873920609585 -20.370013083554134 a43.4137519416831,43.4137519416831 0 0,0 0.6764726459310998,0.3176129777725281 l -9.700124777840282 20.206035123141604" fill="#ff870c" stroke="none" /><path d="M 109.73455568895987 81.39251694778311 l 7.222792282390086 -13.80627830160545 a36.58146491495377,36.58146491495377 0 0,0 0.5554372044468477,0.29669531860696796 l -7.459374533365245 13.679904256496728" fill="#ff0d01" stroke="none" /><line stroke="#e1ed5e" stroke-width="0.3" x1="143.23703022742887" x2="145.7803849466894" y1="26.81831364943548" y2="22.513508569990506" /><path d="M 143.74570117128098 25.957352633546492 a86.0,86.0 0 0,1 28.547481713284135,27.462654790039103" fill="none" id="id14" stroke="none" /><text fill="#e1ed5e" style="font-size:6.75px; font-family:Arial;" text-anchor="middle"><textPath startOffset="19.985693538727396" xlink:href="#id14">February</textPath></text><path d="M 112.19680574252982 82.90503203632743 l 10.916876655091551 -15.301027221529417 a39.79626638288751,39.79626638288751 0 0,0 0.55421926168132,0.40266386345120847 l -11.17864123312666 15.110844123261533" fill="#ff4806" stroke="none" /><path d="M 113.06298171725822 83.55741782278167 l 15.130568262450403 -19.045086139458338 a45.32384430973154,45.32384430973154 0 0,0 0.6066846952122696,0.49056349810246913 l -15.456156356227163 18.78181654409174" fill="#ffa80f" stroke="none" /><path d="M 114.68862486808459 84.99185889309783 l 14.864044984556491 -15.187377072463523 a42.250794235607046,42.250794235607046 0 0,0 0.5153876617933039,0.5131744233839038 l -15.123268446517116 14.9292667984295" fill="#ff730a" stroke="none" /><path d="M 114.94478906791727 85.2469230424477 l 14.106103805439087 -13.925150369610842 a40.821502904323275,40.821502904323275 0 0,0 0.48934433763645196,0.5043123545160216 l -14.343712406778648 13.680273819544706" fill="#ff5a08" stroke="none" /><path d="M 115.4437574822437 85.77008943001954 l 11.173897998325625 -10.295653076466019 a36.193961588339285,36.193961588339285 0 0,0 0.4182235690814028,0.46181291072707226 l -11.349465208023064 10.101787378469398" fill="#ff0500" stroke="none" /><path d="M 115.68641384162765 86.03803664274999 l 22.22548563147762 -19.782177055681878 a50.754104601169985,50.754104601169985 0 0,0 0.575232850090449,0.6575905867060354 l -22.56271034514592 19.396670912772894" fill="#feff18" stroke="none" /><path d="M 116.38621287248628 86.86637796730983 l 16.458795057644895 -13.191796974856372 a42.09301880185446,42.09301880185446 0 0,0 0.4482824709769666,0.5692732143430681 l -16.683431609215827 12.906531366560266" fill="#ff710a" stroke="none" /><path d="M 116.82858285166822 87.43820079747576 l 16.95373245399755 -12.655217893129025 a42.15617129927584,42.15617129927584 0 0,0 0.42906428190167917,0.585243198321752 l -17.169059348412855 12.36151225113578" fill="#ff720a" stroke="none" /><path d="M 117.04232023915458 87.72973835380427 l 13.527539771582477 -9.739662798102074 a37.6689940816019,37.6689940816019 0 0,0 0.37433541378631147,0.5294708958117812 l -13.693187805172672 9.5053654019585" fill="#ff2103" stroke="none" /><path d="M 117.45458315368197 88.32363383020206 l 15.962925575845238 -10.678511341331214 a40.20535335282622,40.20535335282622 0 0,0 0.3798513038963932,0.5785395959342259 l -16.144373515099556 10.402153681419314" fill="#ff4f07" stroke="none" /><path d="M 117.65298651832404 88.62581576622439 l 38.982607108719684 -25.117299823869352 a67.37372539957244,67.37372539957244 0 0,0 0.6197497373952532,0.9802952513379282 l -39.40918444236089 24.442556924817218" fill="#32ff4d" stroke="none" /><line stroke="#e1ed5e" stroke-width="0.3" x1="172.23445277983987" x2="176.4835382374775" y1="55.19839476539836" y2="52.563006222186495" /><path d="M 173.08426987136738 54.67131705675599 a86.0,86.0 0 0,1 12.851231095245387,41.99856678651699" fill="none" id="id15" stroke="none" /><text fill="#e1ed5e" style="font-size:6.75px; font-family:Arial;" text-anchor="middle"><textPath startOffset="22.20632615414155" xlink:href="#id15">March</textPath></text><path d="M 118.03404312379186 89.2402003453031 l 14.370962164082838 -8.574265497167575 a37.73447287300735,37.73447287300735 0 0,0 0.32800299818711265,0.5606634476357976 l -14.516424836740278 8.325622637177883" fill="#ff2203" stroke="none" /><path d="M 118.3937258080291 89.86733742301442 l 18.35516190306799 -10.11141864627247 a41.955971834492075,41.955971834492075 0 0,0 0.3430238358762142,0.6355710715866513 l -18.52649383816267 9.79396659135336" fill="#ff6e0a" stroke="none" /><path d="M 118.56541770881063 90.18545643968196 l 18.573837269855858 -9.818994532008162 a42.00952366301275,42.00952366301275 0 0,0 0.33245650239188546,0.6422001438417433 l -18.74010320540786 9.497821665906073" fill="#ff6f0a" stroke="none" /><path d="M 118.89224826269711 90.83032412892265 l 17.758945831861823 -8.619608149641415 a40.74025840034439,40.74025840034439 0 0,0 0.30078301170204563,0.6335257318760308 l -17.904687037405626 8.312640002124844" fill="#ff5908" stroke="none" /><path d="M 119.04729006885535 91.15688171328212 l 45.617885741556826 -21.179094671434832 a71.29458768725848,71.29458768725848 0 0,0 0.5072022006442813,1.1175528169202453 l -45.97569025916445 20.390719845672525" fill="#39ff87" stroke="none" /><path d="M 119.47837535516314 92.15188598940014 l 18.229831916917483 -7.345058130842363 a40.65392201736124,40.65392201736124 0 0,0 0.25593860539530994,0.6513358341728748 l -18.353564072194494 7.030173291773703" fill="#ff5708" stroke="none" /><path d="M 120.08093135843002 93.85539295169968 l 14.748262646032812 -4.512852366628605 a36.423264491000346,36.423264491000346 0 0,0 0.17829032369597952,0.6011063386352062 l -14.823758866840492 4.258316641246869" fill="#ff0a01" stroke="none" /><path d="M 120.28053869075195 94.5502522615342 l 19.099947386687717 -5.132501491337739 a40.77752668391129,40.77752668391129 0 0,0 0.17632138095979796,0.6794382068560806 l -19.18546509951782 4.802966858932808" fill="#ff5908" stroke="none" /><path d="M 120.67395015179393 96.31383870115 l 61.4805347544909 -10.961967412161007 a83.45014718352105,83.45014718352105 0 0,0 0.23997138306077334,1.4163246868258075 l -61.66011799907189 9.902056937019362" fill="#4cd8ff" stroke="none" /><path d="M 120.83666639777658 97.38593545837742 l 16.168328583376674 -2.028398095945796 a37.29506821144581,37.29506821144581 0 0,0 0.07442967349756031,0.637667989091493 l -16.200848609877823 1.74978636852945" fill="#ff1a02" stroke="none" /><path d="M 120.96714384426684 98.82574320788733 l 19.770695193195756 -1.1072501475563366 a40.801676477296496,40.801676477296496 0 0,0 0.03323664107384597,0.701572962243494 l -19.7868254425031 0.7667660786898429" fill="#ff5a08" stroke="none" /><path d="M 120.98425023603335 99.18683210126433 l 18.054921890595832 -0.6996524884363801 a39.06847304229363,39.06847304229363 0 0,0 0.020256641506470816,0.672219314509636 l -18.064290226557947 0.38876302650174493" fill="#ff3b05" stroke="none" /><line stroke="#e1ed5e" stroke-width="0.3" x1="184.98032266829074" x2="189.97916517819016" y1="98.17113171792111" y2="98.06355123074" /><path d="M 185.9800911702706 98.14961562048488 a86.0,86.0 0 0,1 -9.607161424134198,41.387399972396054" fill="none" id="id16" stroke="none" /><text fill="#e1ed5e" style="font-size:6.75px; font-family:Arial;" text-anchor="middle"><textPath startOffset="21.466115282336823" xlink:href="#id16">April</textPath></text><path d="M 120.99980553446 99.90962569577887 l 18.800134038076312 -0.08090784603538577 a39.80030813388934,39.80030813388934 0 0,0 -0.002948449868690805,0.6851159121416089 l -18.798741290918116 -0.2427175443099079" fill="#ff4806" stroke="none" /><path d="M 120.9904718944345 100.63252640178507 l 19.141457772513732 0.5768082523661225 a40.15014656384969,40.15014656384969 0 0,0 -0.026762686552642308,0.6906260225992821 l -19.128692953109887 -0.9062115219794108" fill="#ff4e07" stroke="none" /><path d="M 120.95626037817324 101.35467743843564 l 38.95594303778126 2.5182325555198353 a60.03725135260599,60.03725135260599 0 0,0 -0.07554241852714276,1.0307162820719085 l -38.906824060589784 -3.188421974088514" fill="#76ff27" stroke="none" /><path d="M 120.89721153311464 102.0752229133903 l 16.673983118118418 1.655830098162626 a37.7559985180615,37.7559985180615 0 0,0 -0.0697905222381354,0.6461735589668414 l -16.64301029437923 -1.9425999790142587" fill="#ff2303" stroke="none" /><path d="M 120.8583938346157 102.4346265915055 l 19.454051822495725 2.2707094446060414 a40.586124008955224,40.586124008955224 0 0,0 -0.08696734885348795,0.6932153383001113 l -19.41208296439539 -2.6052425371935475" fill="#ff5607" stroke="none" /><path d="M 120.76222939487914 103.15116336523771 l 20.87677523290381 3.1685484273887266 a42.11585762553568,42.11585762553568 0 0,0 -0.1149527177459742,0.7158106831351193 l -20.819140760796547 -3.527438340217051" fill="#ff710a" stroke="none" /><path d="M 120.64145759157962 103.86396538481128 l 35.6177054172952 6.667435194837025 a57.23638546089512,57.23638546089512 0 0,0 -0.18961615108310464,0.9668486692619238 l -35.497659333236435 -7.279547591166894" fill="#9dff22" stroke="none" /><path d="M 120.49622156327973 104.57218783832717 l 20.916113395045453 4.665855069659776 a42.43021239011573,42.43021239011573 0 0,0 -0.16515340705783357,0.7114765551389052 l -20.832699422057065 -5.025200282147246" fill="#ff760a" stroke="none" /><path d="M 120.41448212921028 104.9243191809786 l 20.604431453358576 4.970138178217771 a42.19539735477328,42.19539735477328 0 0,0 -0.17639421317015294,0.7046071979944643 l -20.51582592589336 -5.324073215609631" fill="#ff720a" stroke="none" /><path d="M 120.02730092923936 106.31721596034902 l 60.08190278771807 18.951647881047055 a84.0,84.0 0 0,0 -0.4468309959350121,1.375204400088819 l -59.746779540766816 -19.98305118111367" fill="#4dd2ff" stroke="none" /><path d="M 119.26925614724726 108.34839909993367 l 19.59036909643342 8.48752118308402 a42.349954968753295,42.349954968753295 0 0,0 -0.2955601648523773,0.6664101461373473 l -19.44136784684977 -8.823479665714055" fill="#ff750a" stroke="none" /><path d="M 118.81262510543309 109.33194174019688 l 13.614076185438542 6.753218389092513 a36.19700723806178,36.19700723806178 0 0,0 -0.2816839558381002,0.5557891682323862 l -13.495813559814174 -6.9865617690275945" fill="#ff0600" stroke="none" /><line stroke="#e1ed5e" stroke-width="0.3" x1="174.80103733775053" x2="179.2010983576182" y1="140.37084112569926" y2="142.7455964860345" /><path d="M 175.68104954172406 140.8457921977663 a86.0,86.0 0 0,1 -30.038265399797805,32.042727171017184" fill="none" id="id17" stroke="none" /><text fill="#e1ed5e" style="font-size:6.75px; font-family:Arial;" text-anchor="middle"><textPath startOffset="22.206326154141568" xlink:href="#id17">May</textPath></text><path d="M 118.48025628344425 109.97397251340804 l 19.521655696109605 10.536025818194128 a43.18339201202336,43.18339201202336 0 0,0 -0.3586762993714341,0.6511016679329201 l -19.337402987286662 -10.870498004524853" fill="#ff830c" stroke="none" /><path d="M 118.30583269289576 110.29060199501025 l 21.227140612324032 11.932811754491683 a45.35125243069668,45.35125243069668 0 0,0 -0.3883967724595402,0.677202510844587 l -21.018591843712112 -12.296434111194584" fill="#ffa80f" stroke="none" /><path d="M 118.12598468904814 110.60418214915192 l 18.039408919617312 10.553533026111339 a41.89969697154462,41.89969697154462 0 0,0 -0.36955358007519695,0.6193930568882408 l -17.855074463843888 -10.862488176885684" fill="#ff6d0a" stroke="none" /><path d="M 117.75023020441432 111.22182372390056 l 32.16260131515698 20.33342882342028 a59.05103482265411,59.05103482265411 0 0,0 -0.5505669252775295,0.8544920945186048 l -31.807829526502392 -20.884042517860337" fill="#84ff25" stroke="none" /><path d="M 117.14729908036423 112.12312394758627 l 15.98546301355401 11.301706966480154 a40.5771195050214,40.5771195050214 0 0,0 -0.40812893365002845,0.5668553928746052 l -15.78855428752838 -11.575195964805891" fill="#ff5607" stroke="none" /><path d="M 116.71984013943494 112.70617746262583 l 26.512681265587464 20.14820897575726 a54.29973862992648,54.29973862992648 0 0,0 -0.5719396196085923,0.739309056580699 l -26.161934828760803 -20.60159602645121" fill="#c8ff1d" stroke="none" /><path d="M 115.80600337817218 113.82643327865902 l 15.816855897057916 13.835926610065387 a42.014418755402474,42.014418755402474 0 0,0 -0.4808473207157077,0.5402370622515459 l -15.576349726693872 -14.106137842057798" fill="#ff6f0a" stroke="none" /><path d="M 115.32070863581623 114.36230785411682 l 16.455447365039255 15.426061976102448 a43.55537931567836,43.55537931567836 0 0,0 -0.5174657995936148,0.5425608220729013 l -16.187475014066674 -15.707029914757857" fill="#ff8a0c" stroke="none" /><path d="M 114.81725581225074 114.88116024355365 l 32.46055593314854 32.60055306844597 a67.00525787187402,67.00525787187402 0 0,0 -0.8243243601081354,0.8067748836452319 l -31.89458162066461 -33.154478055013776" fill="#32ff47" stroke="none" /><path d="M 114.0293411484842 115.62618273729858 l 12.004904530500847 13.371321571840028 a38.96969597305403,38.96969597305403 0 0,0 -0.5030016237334118,0.4438404499487691 l -11.772960553860846 -13.575985163561086" fill="#ff3905" stroke="none" /><path d="M 113.48314897796784 116.09983520530334 l 13.637024543863296 16.283573533574266 a42.2396611421475,42.2396611421475 0 0,0 -0.5614452945201637,0.4620312543890501 l -13.354709120798441 -16.515899906820497" fill="#ff730a" stroke="none" /><path d="M 112.92097659922987 116.55440617244103 l 13.258947847939055 16.98741626906734 a42.54929255295731,42.54929255295731 0 0,0 -0.5812461741128182,0.4456747807013435 l -12.964572945332742 -17.213130391596057" fill="#ff780b" stroke="none" /><path d="M 112.04921762599082 117.19931262002967 l 12.074028288131574 17.234727893262708 a42.04324130587798,42.04324130587798 0 0,0 -0.5962995224330749,0.410140248878811 l -11.775571881075615 -17.44000893150661" fill="#ff700a" stroke="none" /><path d="M 111.7513745106137 117.40417183066458 l 14.402275218439346 21.330242894382074 a46.73722582954521,46.73722582954521 0 0,0 -0.6706242215783829,0.44445316604105356 l -14.032976298121 -21.574994081514447" fill="#ffbf11" stroke="none" /><path d="M 111.1453310114006 117.79835938074945 l 9.568872938520872 15.280859694011022 a39.02964232317457,39.02964232317457 0 0,0 -0.5724734121304789,0.3516599268146611 l -9.304420326458084 -15.443308087654062" fill="#ff3a05" stroke="none" /><line stroke="#e1ed5e" stroke-width="0.3" x1="143.8653032363475" x2="146.44561519142675" y1="172.8068346515853" y2="177.08958963109032" /><path d="M 144.38136562736335 173.6633856474863 a86.0,86.0 0 0,1 -40.68145358897372,12.25698825130547" fill="none" id="id18" stroke="none" /><text fill="#e1ed5e" style="font-size:6.75px; font-family:Arial;" text-anchor="middle"><textPath startOffset="21.466115282336833" xlink:href="#id18">June</textPath></text><path d="M 110.8373102113329 117.98757091392108 l 9.332559078924495 15.490012278597083 a39.084168196317584,39.084168196317584 0 0,0 -0.5792499465154629,0.3422310785071479 l -9.06454126138065 -15.64836192939798" fill="#ff3b05" stroke="none" /><path d="M 110.5260780823613 118.17145234162733 l 10.864912774183088 18.75639180397535 a42.67599047552016,42.67599047552016 0 0,0 -0.6388214394685202,0.36273948554566365 l -10.540442567793368 -18.940634455315646" fill="#ff7b0b" stroke="none" /><path d="M 109.89434966115114 118.52300852407294 l 10.129413166395643 18.963066078177583 a42.49890430186801,42.49890430186801 0 0,0 -0.6482278895497227,0.33912219467032845 l -9.801494374319425 -19.134617691792627" fill="#ff780b" stroke="none" /><path d="M 108.92500713936063 119.00905698771935 l 11.458089439004334 24.4041793710007 a47.96018887849636,47.96018887849636 0 0,0 -0.7503074750297871,0.3444293615284372 l -11.036313968207129 -24.59779580286321" fill="#ffd313" stroke="none" /><path d="M 108.59647513512805 119.15986991738527 l 9.111287486025837 20.307286448000063 a43.25761538292317,43.25761538292317 0 0,0 -0.6819858150901226,0.2989625396198681 l -8.76038099627796 -20.461113540914386" fill="#ff850c" stroke="none" /><path d="M 107.93186726928326 119.44442032107085 l 8.050619585993292 19.735533356856607 a42.31440246870596,42.31440246870596 0 0,0 -0.6767864747200169,0.26930730557210375 l -7.7097120352314095 -19.87118750683478" fill="#ff740a" stroke="none" /><path d="M 107.59598834532513 119.57807347666477 l 12.991711037149159 33.485132113116215 a56.917107738592065,56.917107738592065 0 0,0 -0.9164461464101805,0.34652151539278175 l -12.413394669978702 -33.70380187861563" fill="#a2ff22" stroke="none" /><path d="M 106.91757812671514 119.82793768551818 l 6.020082781312596 17.255435943476492 a39.27543340917738,39.27543340917738 0 0,0 -0.6402461718080882,0.21720626306778712 l -5.7221668765672815 -17.356505193442402" fill="#ff3e05" stroke="none" /><path d="M 106.2309692047433 120.05430185196036 l 7.630087751493149 24.557348607806645 a46.71539635589599,46.71539635589599 0 0,0 -0.7699698932246927,0.23198561266925455 l -7.206242883828211 -24.685049589581624" fill="#ffbf11" stroke="none" /><path d="M 104.83641907484287 120.43548508189849 l 4.9695446532763174 20.99798509068533 a42.57803864881029,42.57803864881029 0 0,0 -0.7146619381941712,0.16265473039348372 l -4.607362565689285 -21.080416554656498" fill="#ff790b" stroke="none" /><path d="M 104.13013068566511 120.58985236759428 l 9.321517170769095 46.470360624248144 a68.39604518219443,68.39604518219443 0 0,0 -1.1563243368998084,0.22161231124196512 l -8.520225219297583 -46.62393013383858" fill="#34ff5c" stroke="none" /><path d="M 103.7750983002368 120.6578951692458 l 3.213475629745674 17.584613011016977 a38.87582278862142,38.87582278862142 0 0,0 -0.659317346239897,0.11463077182080475 l -2.910309312033727 -17.637322361358788" fill="#ff3705" stroke="none" /><path d="M 102.70371172650421 120.8252237178851 l 2.7421407850132193 21.121221894344757 a42.298482349570854,42.298482349570854 0 0,0 -0.722845969609819,0.08752658029622275 l -2.37816739235202 -21.16529400336633" fill="#ff740a" stroke="none" /><path d="M 102.34483914955558 120.86867818915974 l 2.1764066759481544 19.36965720557378 a40.49154602078932,40.49154602078932 0 0,0 -0.69330666962476,0.07186407106654956 l -1.8426674097177917 -19.404250645096088" fill="#ff5407" stroke="none" /><path d="M 101.62511606390274 120.93702456842531 l 1.9184148577002869 24.715711019214382 a45.79005217323191,45.79005217323191 0 0,0 -0.7863618095020523,0.05423211439209295 l -1.4926902874193044 -24.74507147812276" fill="#ffb010" stroke="none" /><path d="M 100.90346689309514 120.98055641714683 l 0.8999837406760147 20.899669694680803 a41.91903831633377,41.91903831633377 0 0,0 -0.7211664486219924,0.02483843064544949 l -0.5400969403793701 -20.912064923752347" fill="#ff6d0a" stroke="none" /><line stroke="#e1ed5e" stroke-width="0.3" x1="102.19456741930631" x2="102.32365962044197" y1="184.97166512339345" y2="189.96999836594603" /><path d="M 102.22038585953345 185.97133177190398 a86.0,86.0 0 0,1 -42.740103519485714,-10.115201625700543" fill="none" id="id19" stroke="none" /><text fill="#e1ed5e" style="font-size:6.75px; font-family:Arial;" text-anchor="middle"><textPath startOffset="22.20632615414155" xlink:href="#id19">July</textPath></text><path d="M 100.18074693466247 120.99922214144158 l 0.15713226187756155 18.255663803737832 a39.256340034706476,39.256340034706476 0 0,0 -0.6757583930800214,0.0 l 0.15713226187754897 -18.255663803737832" fill="#ff3e05" stroke="none" /><path d="M 99.45781275523022 120.99299961872073 l -0.4424545455598732 17.131439730168626 a38.13715242545525,38.13715242545525 0 0,0 -0.6561036674475718,-0.022597536908796474 l 0.737278564682088 -17.121285394833738" fill="#ff2a04" stroke="none" /><path d="M 99.09653310690486 120.98055641714683 l -1.5429206486893527 35.83012721817464 a56.863332536153564,56.863332536153564 0 0,0 -0.9775400721582334,-0.05052765586999037 l 2.159448789261075 -35.798259755542446" fill="#a3ff22" stroke="none" /><path d="M 98.73552117531835 120.96189622390904 l -1.3398481464454146 22.211331066502176 a43.251706020017835,43.251706020017835 0 0,0 -0.7427702786028839,-0.05122578720060946 l 1.7219811858272287 -22.184976934785283" fill="#ff850c" stroke="none" /><path d="M 97.65516085044442 120.86867818915974 l -2.3862881953441257 21.23756779848445 a42.37121094712376,42.37121094712376 0 0,0 -0.7240888410013088,-0.08767707471304688 l 2.751504459396824 -21.193345195046053" fill="#ff750a" stroke="none" /><path d="M 97.2962882734958 120.8252237178851 l -3.058495209947527 23.557928296442732 a44.75563887942417,44.75563887942417 0 0,0 -0.763129269804231,-0.10576276314511855 l 3.4635530709385893 -23.501790967805007" fill="#ff9e0e" stroke="none" /><path d="M 96.58105272829116 120.7198165907248 l -3.5023929808953755 21.22552190064135 a42.51254370238979,42.51254370238979 0 0,0 -0.7209945792831214,-0.12535414936856298 l 3.867236531650547 -21.16208917275178" fill="#ff780b" stroke="none" /><path d="M 96.22490169976321 120.6578951692458 l -7.542799068317205 41.2753099505271 a62.9588492370452,62.9588492370452 0 0,0 -1.0644014489737703,-0.20399507099261738 l 8.252168131862671 -41.13935768118601" fill="#4fff2b" stroke="none" /><path d="M 94.11515582081647 120.15858648285463 l -5.164188464572457 17.689973873069885 a39.428348220269726,39.428348220269726 0 0,0 -0.6498637159771308,-0.19579860671055954 l 5.467927154989834 -17.598459897253598" fill="#ff4106" stroke="none" /><path d="M 93.42475214034765 119.94407469862007 l -4.909673223690468 14.89204538127855 a36.68049446929155,36.68049446929155 0 0,0 -0.5979449270317709,-0.20285538413159232 l 5.165287883659464 -14.805327010248835" fill="#ff0f01" stroke="none" /><path d="M 92.7421414339146 119.70592522655815 l -5.150803119066513 13.985026050982004 a35.903413247240735,35.903413247240735 0 0,0 -0.5780958664400877,-0.21858639099068639 l 5.390769206266884 -13.894291409884685" fill="#ff0000" stroke="none" /><path d="M 91.40352486487194 119.15986991738527 l -7.399863666690808 16.49285585446756 a39.07684365484903,39.07684365484903 0 0,0 -0.6113330364290833,-0.2806330130326247 l 7.6826646988873115 -16.36303577110086" fill="#ff3b05" stroke="none" /><path d="M 90.42595943632237 118.69057910512821 l -11.429655957455441 22.313138052463128 a46.07016483898889,46.07016483898889 0 0,0 -0.7026996628586717,-0.36761925197057366 l 11.812046522840609 -22.113089381547837" fill="#ffb410" stroke="none" /><path d="M 90.10565033884886 118.52300852407294 l -8.607883760436374 16.11464216742081 a39.269574571324895,39.269574571324895 0 0,0 -0.59348891221723,-0.3236174752849885 l 8.883995484522245 -15.964084040376058" fill="#ff3e05" stroke="none" /><line stroke="#e1ed5e" stroke-width="0.3" x1="58.666819895761336" x2="56.23545636021788" y1="174.27360380694188" y2="178.64263932499728" /><path d="M 58.180547188652646 175.14741091055294 a86.0,86.0 0 0,1 -31.652253787137756,-30.449443065178592" fill="none" id="id20" stroke="none" /><text fill="#e1ed5e" style="font-size:6.75px; font-family:Arial;" text-anchor="middle"><textPath startOffset="22.20632615414155" xlink:href="#id20">August</textPath></text><path d="M 89.4739219176387 118.17145234162733 l -12.168328251379284 21.006513078004232 a45.27636307459744,45.27636307459744 0 0,0 -0.6710218510380432,-0.3964515373096923 l 12.52811797344571 -20.793942968400792" fill="#ffa70f" stroke="none" /><path d="M 89.1626897886671 117.98757091392108 l -18.84373274695705 31.27648581235714 a57.514446847916496,57.514446847916496 0 0,0 -0.8436021873117117,-0.5182093651243826 l 19.37931413420107 -30.94748798040438" fill="#99ff23" stroke="none" /><path d="M 88.24862548938628 117.40417183066458 l -13.888627323930809 20.569513482821613 a45.81932420238346,45.81932420238346 0 0,0 -0.6498557269005568,-0.4469766946630854 l 14.240639935454256 -20.327395998793428" fill="#ffb010" stroke="none" /><path d="M 87.95078237400918 117.19931262002967 l -12.816575941908832 18.294656398914086 a43.33739178214512,43.33739178214512 0 0,0 -0.6072861944662634,-0.43328257530316877 l 13.129589464223983 -18.071329561766696" fill="#ff860c" stroke="none" /><path d="M 87.36589467227662 116.77436683061367 l -21.572429095575774 28.641825415412956 a56.85699178975615,56.85699178975615 0 0,0 -0.7766970251791777,-0.5955381588471793 l 22.06225484924844 -28.26624791473841" fill="#a3ff22" stroke="none" /><path d="M 86.51685102203217 116.09983520530335 l -15.368141004800602 18.35064924324868 a44.935874448036714,44.935874448036714 0 0,0 -0.5887338286120858,-0.5017317410508715 l 15.681740309989745 -18.083393111974853" fill="#ffa10e" stroke="none" /><path d="M 85.18274418774928 114.88116024355367 l -15.452350862723339 15.518994356409891 a42.90009892715074,42.90009892715074 0 0,0 -0.5188039194569043,-0.5255456313418769 l 15.717195407235778 -15.25070823108735" fill="#ff7f0b" stroke="none" /><path d="M 83.50135304334701 112.99209946851258 l -19.220832231290665 15.135723848907691 a45.46488357000325,45.46488357000325 0 0,0 -0.47888201436471267,-0.6190195575115596 l 19.478521062873444 -14.80262629728288" fill="#ffaa0f" stroke="none" /><path d="M 82.6465618267979 111.8261652097733 l -19.71069591751297 13.43260880025943 a44.85259970597481,44.85259970597481 0 0,0 -0.4292968216741202,-0.6417405006451563 l 19.938995844597823 -13.091331385408454" fill="#ffa00e" stroke="none" /><path d="M 82.44556493220864 111.52570212397912 l -19.148002568494938 12.571989529790468 a43.90635115203314,43.90635115203314 0 0,0 -0.4093642867822732,-0.6353424638746146 l 19.361571718654258 -12.240525465994406" fill="#ff900d" stroke="none" /><path d="M 82.05923443525364 110.91462005526583 l -32.34482657433989 19.677615848572973 a58.86022149444103,58.86022149444103 0 0,0 -0.5191446991146894,-0.8701163768635233 l 32.678752149152814 -19.117937377823342" fill="#86ff25" stroke="none" /><line stroke="#e1ed5e" stroke-width="0.3" x1="26.63291911575756" x2="22.317208475507996" y1="142.92168965132927" y2="145.44649492493687" /><path d="M 25.769776987707644 143.4266507060508 a86.0,86.0 0 0,1 -11.730757126820373,-40.83630448921669" fill="none" id="id21" stroke="none" /><text fill="#e1ed5e" style="font-size:6.75px; font-family:Arial;" text-anchor="middle"><textPath startOffset="21.46611528233685" xlink:href="#id21">September</textPath></text><path d="M 81.69416730710424 110.29060199501025 l -16.782704030269834 9.434377035609279 a40.252704345563174,40.252704345563174 0 0,0 -0.33433434386855576,-0.6069139480962564 l 16.942614783589907 -9.1440925691152" fill="#ff5007" stroke="none" /><path d="M 81.51974371655577 109.97397251340807 l -24.3625024002451 13.148677462637199 a48.68427788869364,48.68427788869364 0 0,0 -0.39167079229416335,-0.740893534028619 l 24.58522570076415 -12.727368913522454" fill="#ffdf14" stroke="none" /><path d="M 81.02952815118164 109.00673069616217 l -19.046378785051015 9.04276951154149 a42.08402772865056,42.08402772865056 0 0,0 -0.3050598688531995,-0.6570718181098057 l 19.199213270744043 -8.713577626152857" fill="#ff700a" stroke="none" /><path d="M 80.87730276802145 108.67885076344099 l -32.48835033084349 14.744862644180774 a56.67777854092623,56.67777854092623 0 0,0 -0.3955539877523281,-0.8918698191784599 l 32.7373454033271 -14.183444488509618" fill="#a5ff21" stroke="none" /><path d="M 79.97269907076064 106.31721596034903 l -17.58629039528946 5.5472474678930626 a39.44043286741112,39.44043286741112 0 0,0 -0.19865437514958903,-0.6492139920540819 l 17.679171542945177 -5.2437065032869326" fill="#ff4106" stroke="none" /><path d="M 79.76711848015287 105.62410040840567 l -17.829661638484758 4.956081376959239 a39.5056633698416,39.5056633698416 0 0,0 -0.17648106076757714,-0.6567516796822236 l 17.912330775594107 -4.648438764101477" fill="#ff4206" stroke="none" /><path d="M 79.58551787078972 104.9243191809786 l -20.43317891905678 4.928829163660557 a42.01923304173435,42.01923304173435 0 0,0 -0.16355372994588016,-0.7045851880080509 l 20.514993214933213 -4.576375318303931" fill="#ff6f0a" stroke="none" /><path d="M 79.50377843672027 104.57218783832718 l -17.93481443172579 4.000802790612975 a39.37563581674975,39.37563581674975 0 0,0 -0.14187596832908145,-0.66279729109157 l 18.00102443877931 -3.691491680105242" fill="#ff4006" stroke="none" /><path d="M 79.35854240842038 103.8639653848113 l -61.80848083905772 11.570201832418885 a83.88209501976755,83.88209501976755 0 0,0 -0.2534579691926891,-1.4215268936547691 l 61.9984852505896 -10.504556188030902" fill="#4dd3ff" stroke="none" /><path d="M 79.1416061653843 102.43462659150553 l -15.64519271368994 1.8261330432243186 a36.7514068241555,36.7514068241555 0 0,0 -0.0679335728339168,-0.6289805137385813 l 15.67430858802491 -1.5565562076009554" fill="#ff1001" stroke="none" /><path d="M 79.07016306316243 101.71520430193888 l -35.67166598305083 2.923300125848966 a56.79124805915735,56.79124805915735 0 0,0 -0.07145810530811063,-0.9749890732001156 l 35.71670064702328 -2.3088379161520898" fill="#a4ff21" stroke="none" /><line stroke="#e1ed5e" stroke-width="0.3" x1="15.007084014347285" x2="10.007500721073583" y1="101.09737516637583" y2="101.16192664675087" /><path d="M 14.007167355692545 101.11028546245083 a86.0,86.0 0 0,1 10.666146001902534,-42.60595125391555" fill="none" id="id22" stroke="none" /><text fill="#e1ed5e" style="font-size:6.75px; font-family:Arial;" text-anchor="middle"><textPath startOffset="22.20632615414155" xlink:href="#id22">October</textPath></text><line stroke="#e1ed5e" stroke-width="0.3" x1="26.266209847984243" x2="21.928928074336255" y1="57.711370442889674" y2="55.22380399835377" /><path d="M 25.398753493254645 57.213857153982495 a86.0,86.0 0 0,1 29.58750427330803,-30.492523968695096" fill="none" id="id23" stroke="none" /><text fill="#e1ed5e" style="font-size:6.75px; font-family:Arial;" text-anchor="middle"><textPath startOffset="21.46611528233685" xlink:href="#id23">November</textPath></text><line stroke="#e1ed5e" stroke-width="0.3" x1="56.762969772571076" x2="54.21961505331055" y1="26.818313649435495" y2="22.513508569990535" /><path d="M 56.25429882871897 25.957352633546506 a86.0,86.0 0 0,1 42.265352541879196,-11.944610805530505" fill="none" id="id24" stroke="none" /><text fill="#e1ed5e" style="font-size:6.75px; font-family:Arial;" text-anchor="middle"><textPath startOffset="22.20632615414155" xlink:href="#id24">December</textPath></text></svg>