<?xml version="1.0" encoding="utf-8" ?>
<svg baseProfile="full" height="200mm" version="1.1" viewBox="0,0,200,200" width="200mm" xmlns="http://www.w3.org/2000/svg" xmlns:ev="http://www.w3.org/2001/xml-events" xmlns:xlink="http://www.w3.org/1999/xlink"><defs /><rect fill="#1a1a1a" height="200" width="200" x="0" y="0" /><text alignment-baseline="middle" fill="#e1ed5e" style="dominant-baseline: central; font-size:9.0px; font-family:Arial;" text-anchor="middle" x="100.0" y="100.0">2025</text><line stroke="#e1ed5e" stroke-width="0.3" x1="100.0" x2="100.0" y1="15.0" y2="10.0" /><path d="M 100.0 14.0 a86.0,86.0 0 0,1 42.46469731375804,11.215312516191453" fill="none" id="id13" stroke="none" /><text fill="#e1ed5e" style="font-size:6.75px; font-family:Arial;" text-anchor="middle"><textPath startOffset="22.20632615414155" xlink:href="#id13">January</textPath></text><path d="M 100.0 79.0 l 0.0 -35.7669061570169 a56.7669061570169,56.7669061570169 0 0,0 0.9771489735455767,0.008410629712247562 l -0.6156684942730483 35.76160690391321" fill="#81ff25" stroke="none" /><path d="M 100.72285384407766 79.0124445844662 l 0.6602163135566285 -19.168918558757102 a40.18028478133077,40.18028478133077 0 0,0 0.6910227717135728,0.02975689415499958 l -0.9900799176595328 19.154713938077908" fill="#ff940d" stroke="none" /><path d="M 106.0581310904928 79.89281104454417 l 4.566974365963039 -15.157977792070557 a36.83103109731857,36.83103109731857 0 0,0 0.605457651092418,0.1881186394112419 l -4.827217389766175 15.077119017776795" fill="#ff5f08" stroke="none" /><path d="M 107.08798089147638 80.2323363322302 l 6.445123666369914 -17.974799718660943 a40.09536708211641,40.09536708211641 0 0,0 0.6476693889947774,0.23854210187359437 l -6.753575381137267 17.861194348981023" fill="#ff930d" stroke="none" /><path d="M 107.76421540070413 80.48803036053334 l 7.436467933863764 -18.68831930361669 a41.11353608208453,41.11353608208453 0 0,0 0.6553030335682639,0.2673145610717742 l -7.757054837020415 18.557543856361338" fill="#ffa20f" stroke="none" /><path d="M 108.76106565485865 80.91482961587045 l 9.332350213306187 -20.32966090221475 a43.36935119539311,43.36935119539311 0 0,0 0.6757807939491643,0.31728814399028715 l -9.680909218554948 20.16600777558446" fill="#ffc512" stroke="none" /><path d="M 109.73455568895987 81.39251694778311 l 7.208484219711865 -13.778928616391056 a36.5505986560465,36.5505986560465 0 0,0 0.5549685444683848,0.29644497667719594 l -7.444597810708561 13.652804913212105" fill="#ff5a08" stroke="none" /><line stroke="#e1ed5e" stroke-width="0.3" x1="143.23703022742887" x2="145.7803849466894" y1="26.81831364943548" y2="22.513508569990506" /><path d="M 143.74570117128098 25.957352633546492 a86.0,86.0 0 0,1 28.547481713284135,27.462654790039103" fill="none" id="id14" stroke="none" /><text fill="#e1ed5e" style="font-size:6.75px; font-family:Arial;" text-anchor="middle"><textPath startOffset="19.985693538727396" xlink:href="#id14">February</textPath></text><path d="M 112.19680574252982 82.90503203632743 l 10.895250758994232 -15.270716498478356 a39.75903173082938,39.75903173082938 0 0,0 0.5537007165199705,0.4022871183387967 l -11.15649679186799 15.080910145322884" fill="#ff8d0d" stroke="none" /><path d="M 113.06298171725822 83.55741782278167 l 15.100595211780773 -19.007358585412526 a45.275659746843374,45.275659746843374 0 0,0 0.606039718218483,0.4900419715619704 l -15.425538328563748 18.744610516586427" fill="#ffe115" stroke="none" /><path d="M 114.68862486808459 84.99185889309783 l 14.834599905842335 -15.157291485812994 a42.208697262027115,42.208697262027115 0 0,0 0.5148741504812809,0.5126631172526481 l -15.093309856490938 14.899692517910227" fill="#ffb310" stroke="none" /><path d="M 114.94478906791727 85.2469230424477 l 14.078160177891357 -13.897565203583316 a40.7822372997145,40.7822372997145 0 0,0 0.48887364449896,0.5038272638627412 l -14.315298086093426 13.65317374417046" fill="#ff9d0e" stroke="none" /><path d="M 115.4437574822437 85.77008943001954 l 11.15176295322542 -10.275257799435767 a36.163862958026115,36.163862958026115 0 0,0 0.41787577745977245,0.4614288705318619 l -11.326982371301229 10.081776141634355" fill="#ff5407" stroke="none" /><path d="M 115.68641384162765 86.03803664274999 l 22.181457833219543 -19.74298935400666 a50.69516290979588,50.69516290979588 0 0,0 0.5745648214179956,0.6568269144529888 l -22.518014518215388 19.358246883350724" fill="#d1ff1d" stroke="none" /><path d="M 116.38621287248628 86.86637796730983 l 16.426190842808627 -13.16566455257769 a42.0512343750995,42.0512343750995 0 0,0 0.44783747495132525,0.5687081145805576 l -16.650382398353916 12.880964044044093" fill="#ffb110" stroke="none" /><path d="M 116.82858285166822 87.43820079747576 l 16.92014778797122 -12.630148412553913 a42.1142617699489,42.1142617699489 0 0,0 0.428637727934578,0.5846613791899969 l -17.135048128419424 12.337024589692422" fill="#ffb210" stroke="none" /><path d="M 117.04232023915458 87.72973835380427 l 13.500742256249545 -9.720368915579694 a37.63597347090485,37.63597347090485 0 0,0 0.37400727165589037,0.5290067620393702 l -13.666062147709317 9.48653565320853" fill="#ff6c09" stroke="none" /><path d="M 117.45458315368197 88.32363383020206 l 15.93130365862302 -10.657357637388431 a40.167308315839676,40.167308315839676 0 0,0 0.3794918627846759,0.5779921424612433 l -16.112392156765623 10.381547430949514" fill="#ff940d" stroke="none" /><path d="M 117.65298651832404 88.62581576622439 l 38.905384122917916 -25.067543457337276 a67.2818609040009,67.2818609040009 0 0,0 0.6189047047557671,0.9789586126372885 l -39.33111642391964 24.39413719698578" fill="#35ff62" stroke="none" /><line stroke="#e1ed5e" stroke-width="0.3" x1="172.23445277983987" x2="176.4835382374775" y1="55.19839476539836" y2="52.563006222186495" /><path d="M 173.08426987136738 54.67131705675599 a86.0,86.0 0 0,1 12.851231095245387,41.99856678651699" fill="none" id="id15" stroke="none" /><text fill="#e1ed5e" style="font-size:6.75px; font-family:Arial;" text-anchor="middle"><textPath startOffset="22.20632615414155" xlink:href="#id15">March</textPath></text><path d="M 118.03404312379186 89.2402003453031 l 14.342493862718085 -8.557280220095116 a37.701322551442956,37.701322551442956 0 0,0 0.32771484244950416,0.56017089607317 l -14.487668379637917 8.309129911668052" fill="#ff6d0a" stroke="none" /><path d="M 118.3937258080291 89.86733742301442 l 18.318801061345003 -10.091388330281058 a41.914458892299066,41.914458892299066 0 0,0 0.34268443416420696,0.6349422117604886 l -18.489793594727672 9.77456513518811" fill="#ffaf10" stroke="none" /><path d="M 118.56541770881063 90.18545643968196 l 18.537043240975898 -9.79954349649332 a41.96790463678893,41.96790463678893 0 0,0 0.3321271362223873,0.6415639132374191 l -18.7029798103584 9.479006860995556" fill="#ffaf10" stroke="none" /><path d="M 118.89224826269711 90.83032412892265 l 17.723766070333735 -8.602533050587624 a40.701153737849104,40.701153737849104 0 0,0 0.3004943042019277,0.6329176402511902 l -17.86921856837742 8.296172994695894" fill="#ff9c0e" stroke="none" /><path d="M 119.04729006885535 91.15688171328212 l 45.52751853412244 -21.137139731824327 a71.19495612028692,71.19495612028692 0 0,0 0.5064934042031926,1.115991077916835 l -45.88461425528898 20.35032664506543" fill="#3aff96" stroke="none" /><path d="M 119.47837535516314 92.15188598940014 l 18.19371934888522 -7.330507864407661 a40.61498838378812,40.61498838378812 0 0,0 0.2556934969436477,0.650712059898651 l -18.31720639571057 7.016246799613226" fill="#ff9b0e" stroke="none" /><path d="M 120.08093135843002 93.85539295169968 l 14.719046927501237 -4.503912586555361 a36.39271162080663,36.39271162080663 0 0,0 0.17814076870158782,0.6006021135418877 l -14.794393593314528 4.249881086266944" fill="#ff5808" stroke="none" /><path d="M 120.28053869075195 94.5502522615342 l 19.062111154705004 -5.1223342111276775 a40.73834819443658,40.73834819443658 0 0,0 0.17615197379046063,0.6787854119270903 l -19.147459460365766 4.7934523736517365" fill="#ff9d0e" stroke="none" /><path d="M 120.67395015179393 96.31383870115 l 61.358744273695464 -10.940252193077077 a83.32643593927767,83.32643593927767 0 0,0 0.23961563583463644,1.4142250465594517 l -61.53797177105032 9.882441358201788" fill="#4cd9ff" stroke="none" /><path d="M 120.83666639777658 97.38593545837742 l 16.136299771010428 -2.024379920431606 a37.26278833294457,37.26278833294457 0 0,0 0.07436525262550917,0.6371160704009223 l -16.168755376639528 1.7463201117058311" fill="#ff6609" stroke="none" /><path d="M 120.96714384426684 98.82574320788733 l 19.731530236630974 -1.1050567292919997 a40.762450148046824,40.762450148046824 0 0,0 0.03320468769500279,0.7008984769187317 l -19.747628532559474 0.7652471457502682" fill="#ff9d0e" stroke="none" /><path d="M 120.98425023603335 99.18683210126433 l 18.01915581233121 -0.6982665048352831 a39.032680119739396,39.032680119739396 0 0,0 0.020238083207561486,0.6716034549177431 l -18.028505589994417 0.3879929024925408" fill="#ff820c" stroke="none" /><line stroke="#e1ed5e" stroke-width="0.3" x1="184.98032266829074" x2="189.97916517819016" y1="98.17113171792111" y2="98.06355123074" /><path d="M 185.9800911702706 98.14961562048488 a86.0,86.0 0 0,1 -9.607161424134198,41.387399972396054" fill="none" id="id16" stroke="none" /><text fill="#e1ed5e" style="font-size:6.75px; font-family:Arial;" text-anchor="middle"><textPath startOffset="21.466115282336823" xlink:href="#id16">April</textPath></text><path d="M 120.99980553446 99.90962569577887 l 18.762891724347924 -0.0807475708278242 a39.76306547528411,39.76306547528411 0 0,0 -0.002945690892265173,0.6844748231848334 l -18.761501736166156 -0.24223673056069392" fill="#ff8d0d" stroke="none" /><path d="M 120.9904718944345 100.63252640178507 l 19.10353931011666 0.5756656182842464 a40.112210889304436,40.112210889304436 0 0,0 -0.026737399955857336,0.6899734878947289 l -19.0907997773096 -0.9044163531929815" fill="#ff930d" stroke="none" /><path d="M 120.95626037817324 101.35467743843564 l 38.87877287243776 2.513244037529284 a59.95992011874227,59.95992011874227 0 0,0 -0.07544511579755168,1.0293886636340168 l -38.82975119797587 -3.182105837660071" fill="#5aff2a" stroke="none" /><path d="M 120.89721153311464 102.0752229133903 l 16.640952624339533 1.6525499649533735 a37.722805555055054,37.722805555055054 0 0,0 -0.0697291663128844,0.6456054793005528 l -16.610041156525597 -1.9387517661387177" fill="#ff6d0a" stroke="none" /><path d="M 120.8583938346157 102.4346265915055 l 19.415514123786 2.266211259999976 a40.54732468052558,40.54732468052558 0 0,0 -0.08688421022388938,0.6925526416213834 l -19.373628404315262 -2.6000816559087543" fill="#ff9a0e" stroke="none" /><path d="M 120.76222939487914 103.15116336523771 l 20.835419176011538 3.16227165966157 a42.074027955984306,42.074027955984306 0 0,0 -0.1148385461614822,0.7150997365695023 l -20.77789887548877 -3.520450625924277" fill="#ffb110" stroke="none" /><path d="M 120.64145759157962 103.86396538481128 l 35.54714816718465 6.654227272340997 a57.16460263035868,57.16460263035868 0 0,0 -0.18937834459112288,0.9656360990826376 l -35.42733988961787 -7.26512709849158" fill="#7cff26" stroke="none" /><path d="M 120.49622156327973 104.57218783832717 l 20.87467941082709 4.656612197350275 a42.3877599963465,42.3877599963465 0 0,0 -0.16498816731299595,0.7107647066428706 l -20.79143067758354 -5.015245561341711" fill="#ffb610" stroke="none" /><path d="M 120.41448212921028 104.9243191809786 l 20.563614898602793 4.96029253323823 a42.153410120199005,42.153410120199005 0 0,0 -0.17621868916350245,0.7039060668389457 l -20.475184895144228 -5.313526439474573" fill="#ffb210" stroke="none" /><path d="M 120.02730092923936 106.31721596034902 l 59.96288294091873 18.914105424454647 a83.8751995193153,83.8751995193153 0 0,0 -0.4461671301840893,1.3731612313963095 l -59.62842355971839 -19.94346555582875" fill="#4dd3ff" stroke="none" /><path d="M 119.26925614724726 108.34839909993367 l 19.551561358655228 8.47070774302893 a42.30766156172635,42.30766156172635 0 0,0 -0.2952649993353826,0.665744625817945 l -19.402855274588575 -8.806000705339564" fill="#ffb510" stroke="none" /><path d="M 118.81262510543309 109.33194174019688 l 13.587107244930275 6.739840533519061 a36.1669025744383,36.1669025744383 0 0,0 -0.281449682305958,0.555326924327934 l -13.469078892838048 -6.972721669549689" fill="#ff5407" stroke="none" /><line stroke="#e1ed5e" stroke-width="0.3" x1="174.80103733775053" x2="179.2010983576182" y1="140.37084112569926" y2="142.7455964860345" /><path d="M 175.68104954172406 140.8457921977663 a86.0,86.0 0 0,1 -30.038265399797805,32.042727171017184" fill="none" id="id17" stroke="none" /><text fill="#e1ed5e" style="font-size:6.75px; font-family:Arial;" text-anchor="middle"><textPath startOffset="22.206326154141568" xlink:href="#id17">May</textPath></text><path d="M 118.48025628344425 109.97397251340804 l 19.482984076829677 10.51515437237481 a43.13944759954213,43.13944759954213 0 0,0 -0.35831130212336165,0.6504390919070513 l -19.299096365254805 -10.848963982679667" fill="#ffc112" stroke="none" /><path d="M 118.30583269289576 110.29060199501025 l 21.18509049562594 11.909173331588814 a45.30301357341691,45.30301357341691 0 0,0 -0.3879836456886041,0.6764821894969009 l -20.976954853784957 -12.272075366944032" fill="#ffe115" stroke="none" /><path d="M 118.12598468904814 110.60418214915192 l 18.00367357192785 10.532626899213232 a41.85829550760472,41.85829550760472 0 0,0 -0.3691884208896846,0.618781029089405 l -17.819704275339937 -10.84097002218874" fill="#ffae10" stroke="none" /><path d="M 117.75023020441432 111.22182372390056 l 32.09888848810615 20.29314911403725 a58.975657244298276,58.975657244298276 0 0,0 -0.5498641365512206,0.8534013508084826 l -31.74481948817788 -20.842672064767186" fill="#66ff29" stroke="none" /><path d="M 117.14729908036423 112.12312394758627 l 15.953796450568948 11.279318736925006 a40.538338014153965,40.538338014153965 0 0,0 -0.40773886533798065,0.5663136221055095 l -15.757277792855364 -11.552265964481647" fill="#ff990e" stroke="none" /><path d="M 116.71984013943494 112.70617746262583 l 26.46016070421944 20.108296179485666 a54.23377317932823,54.23377317932823 0 0,0 -0.5712448049432841,0.7384109149638288 l -26.110109082058088 -20.56078508856275" fill="#a2ff22" stroke="none" /><path d="M 115.80600337817218 113.82643327865902 l 15.785523338028183 13.80851819273754 a41.972790032196386,41.972790032196386 0 0,0 -0.4803708876098495,0.5397017846064815 l -15.545493600769994 -14.07819414708489" fill="#ffaf10" stroke="none" /><path d="M 115.32070863581623 114.36230785411682 l 16.422849781848168 15.395503564202615 a43.51069801122404,43.51069801122404 0 0,0 -0.5169349570823198,0.542004235822089 l -16.155408273386882 -15.675914916607212" fill="#ffc712" stroke="none" /><path d="M 114.81725581225074 114.88116024355365 l 32.39625286991442 32.53597267648519 a66.91412329574015,66.91412329574015 0 0,0 -0.823203187627926,0.8056775803978202 l -31.831399729910697 -33.08880035980558" fill="#34ff5d" stroke="none" /><path d="M 114.0293411484842 115.62618273729858 l 11.981123294691635 13.344833518513756 a38.93409872392395,38.93409872392395 0 0,0 -0.5025421519909263,0.44343501955788905 l -11.74963878979412 -13.549091679843933" fill="#ff800b" stroke="none" /><path d="M 113.48314897796784 116.09983520530334 l 13.610010143574678 16.251316425570227 a42.197586222780515,42.197586222780515 0 0,0 -0.5608860389566208,0.4615710251341793 l -13.328253976073366 -16.483182569561585" fill="#ffb310" stroke="none" /><path d="M 112.92097659922987 116.55440617244103 l 13.232682402466102 16.95376487675035 a42.506604266147406,42.506604266147406 0 0,0 -0.5806630292025519,0.4452276500507259 l -12.938890644770057 -17.179031868628446" fill="#ffb811" stroke="none" /><path d="M 112.04921762599082 117.19931262002967 l 12.050110120922694 17.200586586507956 a42.00155548635198,42.00155548635198 0 0,0 -0.5957082922257096,0.4097335953510603 l -11.752244944074102 -17.405460971224112" fill="#ffb010" stroke="none" /><path d="M 111.7513745106137 117.40417183066458 l 14.373744887166099 21.287988536186198 a46.686241414386195,46.686241414386195 0 0,0 -0.6698926551851754,0.44396832372673184 l -14.00517753324096 -21.53225488100425" fill="#fff517" stroke="none" /><path d="M 111.1453310114006 117.79835938074945 l 9.549917383880583 15.250588922025498 a38.9939263227221,38.9939263227221 0 0,0 -0.5719495420812128,0.3513381230430244 l -9.28598864186706 -15.4127155118969" fill="#ff810b" stroke="none" /><line stroke="#e1ed5e" stroke-width="0.3" x1="143.8653032363475" x2="146.44561519142675" y1="172.8068346515853" y2="177.08958963109032" /><path d="M 144.38136562736335 173.6633856474863 a86.0,86.0 0 0,1 -40.68145358897372,12.25698825130547" fill="none" id="id18" stroke="none" /><text fill="#e1ed5e" style="font-size:6.75px; font-family:Arial;" text-anchor="middle"><textPath startOffset="21.466115282336833" xlink:href="#id18">June</textPath></text><path d="M 110.8373102113329 117.98757091392108 l 9.31407165259008 15.459327183705321 a39.04834418229086,39.04834418229086 0 0,0 -0.5787190139367083,0.3419173941811764 l -9.046584767624989 -15.617363150180248" fill="#ff820c" stroke="none" /><path d="M 110.5260780823613 118.17145234162733 l 10.843389816455858 18.719236141863497 a42.63305120519219,42.63305120519219 0 0,0 -0.638178676964944,0.36237450822106215 l -10.519562372569714 -18.903113815879188" fill="#ffb911" stroke="none" /><path d="M 109.89434966115114 118.52300852407294 l 10.109347203979452 18.925501002593265 a42.45631583216853,42.45631583216853 0 0,0 -0.6475782955358075,0.33878235778395716 l -9.78207800591715 -19.096712779321937" fill="#ffb711" stroke="none" /><path d="M 108.92500713936063 119.00905698771935 l 11.435391422024715 24.35583566756869 a47.9067818224426,47.9067818224426 0 0,0 -0.7494719546885726,0.3440458151194705 l -11.014451471568723 -24.549068553022234" fill="#f7ff18" stroke="none" /><path d="M 108.59647513512805 119.15986991738527 l 9.093238389868494 20.267058525617326 a43.21352393691231,43.21352393691231 0 0,0 -0.6812906833663779,0.29865781430021665 l -8.743027031844361 -20.420580893211998" fill="#ffc212" stroke="none" /><path d="M 107.93186726928326 119.44442032107085 l 8.034671630530728 19.696438054483515 a42.2721794897599,42.2721794897599 0 0,0 -0.6761111504945546,0.2690385801256887 l -7.6944394039943065 -19.831823479015274" fill="#ffb410" stroke="none" /><path d="M 107.59598834532513 119.57807347666477 l 12.965974977111811 33.4187994054415 a56.84595738445587,56.84595738445587 0 0,0 -0.9153005248131852,0.3460883393317415 l -12.388804231538352 -33.63703599487987" fill="#80ff25" stroke="none" /><path d="M 106.91757812671514 119.82793768551818 l 6.008157238060701 17.221253614902366 a39.23923050641252,39.23923050641252 0 0,0 -0.6396560123141861,0.21700604892527622 l -5.710831492809287 -17.322122650725767" fill="#ff850c" stroke="none" /><path d="M 106.2309692047433 120.05430185196036 l 7.614972852778027 24.50870148224163 a46.664455184051334,46.664455184051334 0 0,0 -0.7691302734910367,0.23173264213100972 l -7.191967604846743 -24.636149493478367" fill="#fff517" stroke="none" /><path d="M 104.83641907484287 120.43548508189849 l 4.959700184045953 20.956388921911874 a42.53529341713403,42.53529341713403 0 0,0 -0.7139444699620086,0.1624914369597195 l -4.598235564691082 -21.038657092449277" fill="#ffb811" stroke="none" /><path d="M 104.13013068566511 120.58985236759428 l 9.30305161801318 46.378304698160875 a68.30215551201519,68.30215551201519 0 0,0 -1.1547370095869125,0.2213080961845778 l -8.503346993854562 -46.531569992693925" fill="#36ff70" stroke="none" /><path d="M 103.7750983002368 120.6578951692458 l 3.2071098630272483 17.549778595835555 a38.84041149851579,38.84041149851579 0 0,0 -0.6587167858878675,0.11452635670557877 l -2.904544105667331 -17.60238353106214" fill="#ff7f0b" stroke="none" /><path d="M 102.70371172650421 120.8252237178851 l 2.736708713773938 21.079381598391386 a42.25629090774417,42.25629090774417 0 0,0 -0.7221249528739371,0.08743927521065639 l -2.37345633784862 -21.123366402327395" fill="#ffb410" stroke="none" /><path d="M 102.34483914955558 120.86867818915974 l 2.1720953013557147 19.331286689225315 a40.45293404757214,40.45293404757214 0 0,0 -0.6926455454843011,0.07179554284621747 l -1.8390171592658109 -19.36581160052729" fill="#ff980e" stroke="none" /><path d="M 101.62511606390274 120.93702456842531 l 1.9146145545829274 24.666750184045142 a45.740944071209405,45.740944071209405 0 0,0 -0.7855184661526816,0.054173952497094724 l -1.4897333276513154 -24.696052481058523" fill="#ffe715" stroke="none" /><path d="M 100.90346689309514 120.98055641714683 l 0.898200908875304 20.85826828477529 a41.877598537963294,41.877598537963294 0 0,0 -0.7204535272621655,0.024813876192333214 l -0.5390270299384863 -20.870638959393716" fill="#ffae10" stroke="none" /><line stroke="#e1ed5e" stroke-width="0.3" x1="102.19456741930631" x2="102.32365962044197" y1="184.97166512339345" y2="189.96999836594603" /><path d="M 102.22038585953345 185.97133177190398 a86.0,86.0 0 0,1 -42.740103519485714,-10.115201625700543" fill="none" id="id19" stroke="none" /><text fill="#e1ed5e" style="font-size:6.75px; font-family:Arial;" text-anchor="middle"><textPath startOffset="22.20632615414155" xlink:href="#id19">July</textPath></text><path d="M 100.18074693466247 120.99922214144158 l 0.15682098915036485 18.219500063770777 a39.22017495515291,39.22017495515291 0 0,0 -0.6751358476256281,0.0 l 0.1568209891503523 -18.219500063770777" fill="#ff850c" stroke="none" /><path d="M 99.45781275523022 120.99299961872073 l -0.4415780607984921 17.097503033134558 a38.10320441180026,38.10320441180026 0 0,0 -0.6555196328554471,-0.022577421576561108 l 0.7358180453285822 -17.087368813131903" fill="#ff730a" stroke="none" /><path d="M 99.09653310690486 120.98055641714683 l -1.5398641845843564 35.75914916897111 a56.792288708542976,56.792288708542976 0 0,0 -0.9763187545661859,-0.050464527700868164 l 2.155171007564031 -35.727344834508045" fill="#81ff25" stroke="none" /><path d="M 98.73552117531835 120.96189622390904 l -1.3371939608466707 22.167331307871287 a43.20762628021859,43.20762628021859 0 0,0 -0.7420132883330371,-0.051173580719557146 l 1.718570009958638 -22.141029382635445" fill="#ffc212" stroke="none" /><path d="M 97.65516085044442 120.86867818915974 l -2.3815610538547425 21.195497025947553 a42.32887543285368,42.32887543285368 0 0,0 -0.7233653621869017,-0.08758947150405895 l 2.7460538390930336 -21.151362025718143" fill="#ffb510" stroke="none" /><path d="M 97.2962882734958 120.8252237178851 l -3.0524364532431894 23.51126098254858 a44.708579908771405,44.708579908771405 0 0,0 -0.7623268663795199,-0.10565155734197026 l 3.4566919108095404 -23.455234859714004" fill="#ffd814" stroke="none" /><path d="M 96.58105272829116 120.7198165907248 l -3.495454880457876 21.18347499054637 a42.4699282135833,42.4699282135833 0 0,0 -0.7202718387988523,-0.12522849167123346 l 3.859575690728778 -21.12016792035413" fill="#ffb711" stroke="none" /><path d="M 96.22490169976321 120.6578951692458 l -7.527857084992855 41.193545212078924 a62.87573043460457,62.87573043460457 0 0,0 -1.0629962172259397,-0.20372575498366594 l 8.235820916790491 -41.05786225874679" fill="#38ff2e" stroke="none" /><path d="M 94.11515582081647 120.15858648285463 l -5.153958413735552 17.65493074223403 a39.391842399379016,39.391842399379016 0 0,0 -0.6492620217776605,-0.1956173211840319 l 5.457095409953458 -17.563598051944272" fill="#ff880c" stroke="none" /><path d="M 93.42475214034765 119.94407469862007 l -4.899947357367905 14.8625448348982 a36.64943203679724,36.64943203679724 0 0,0 -0.5974385646121806,-0.2026835985063748 l 5.155055654917311 -14.775998249493703" fill="#ff5c08" stroke="none" /><path d="M 92.7421414339146 119.70592522655815 l -5.140599584063787 13.957322273624056 a35.873890181572506,35.873890181572506 0 0,0 -0.5776205032173792,-0.21840664929507211 l 5.380090308041449 -13.866767374222352" fill="#ff4f07" stroke="none" /><path d="M 91.40352486487194 119.15986991738527 l -7.385204832681215 16.460184166554843 a39.04103415044605,39.04103415044605 0 0,0 -0.6107728188932697,-0.28037584463886767 l 7.667445647341905 -16.3306212515819" fill="#ff820c" stroke="none" /><path d="M 90.42595943632237 118.69057910512821 l -11.40701426606574 22.268936618264217 a46.02050184497698,46.02050184497698 0 0,0 -0.7019421624401104,-0.3672229635532631 l 11.788647331032347 -22.069284235766236" fill="#ffec16" stroke="none" /><path d="M 90.10565033884886 118.52300852407294 l -8.590831886928749 16.082719705697702 a39.233383274683526,39.233383274683526 0 0,0 -0.5929419459332841,-0.3233192256560017 l 8.866396644730672 -15.932459828281933" fill="#ff850c" stroke="none" /><line stroke="#e1ed5e" stroke-width="0.3" x1="58.666819895761336" x2="56.23545636021788" y1="174.27360380694188" y2="178.64263932499728" /><path d="M 58.180547188652646 175.14741091055294 a86.0,86.0 0 0,1 -31.652253787137756,-30.449443065178592" fill="none" id="id20" stroke="none" /><text fill="#e1ed5e" style="font-size:6.75px; font-family:Arial;" text-anchor="middle"><textPath startOffset="22.20632615414155" xlink:href="#id20">August</textPath></text><path d="M 89.4739219176387 118.17145234162733 l -12.144223279714183 20.964900015628924 a45.22827257013734,45.22827257013734 0 0,0 -0.6703091219863082,-0.396030444423062 l 12.503300272728874 -20.75275099891211" fill="#ffe015" stroke="none" /><path d="M 89.1626897886671 117.98757091392108 l -18.806404065929836 31.214528344682368 a57.442113188891796,57.442113188891796 0 0,0 -0.8425412220010158,-0.5175576335756218 l 19.340924487863163 -30.88618224427837" fill="#79ff26" stroke="none" /><path d="M 88.24862548938628 117.40417183066458 l -13.861114508596252 20.528766099169133 a45.77015811364177,45.77015811364177 0 0,0 -0.6491584039938076,-0.4464970696092936 l 14.21242979721295 -20.287128240194736" fill="#ffe815" stroke="none" /><path d="M 87.95078237400918 117.19931262002967 l -12.791186817491651 18.258415416175257 a43.29314230227759,43.29314230227759 0 0,0 -0.606666127195696,-0.4328401737694261 l 13.103580272536234 -18.035530980561614" fill="#ffc312" stroke="none" /><path d="M 87.36589467227662 116.77436683061367 l -21.52969497620015 28.585087104626755 a56.785960522910614,56.785960522910614 0 0,0 -0.7757266999488588,-0.5947941548373612 l 22.018550404642497 -28.210253607962027" fill="#81ff25" stroke="none" /><path d="M 86.51685102203217 116.09983520530335 l -15.337697332028712 18.314297340924337 a44.88845843793,44.88845843793 0 0,0 -0.5881126009290701,-0.5012023173421588 l 15.65067540953484 -18.04757063335923" fill="#ffdb14" stroke="none" /><path d="M 85.18274418774928 114.88116024355367 l -15.421740373590383 15.488251849180957 a42.856715706942,42.856715706942 0 0,0 -0.5182792730051285,-0.5250141672561423 l 15.686060271651044 -15.220497187944149" fill="#ffbd11" stroke="none" /><path d="M 83.50135304334701 112.99209946851258 l -19.18275653126487 15.105740585227462 a45.41641961398053,45.41641961398053 0 0,0 -0.47837154309409985,-0.6183597045820728 l 19.43993489157704 -14.773302886532136" fill="#ffe315" stroke="none" /><path d="M 82.6465618267979 111.8261652097733 l -19.671649817114 13.405999339384485 a44.805348659802036,44.805348659802036 0 0,0 -0.42884456864808107,-0.6410644437337242 l 19.899497491172813 -13.06539798144494" fill="#ffda14" stroke="none" /><path d="M 82.44556493220864 111.52570212397912 l -19.11007114111875 12.547084921274902 a43.86097458640606,43.86097458640606 0 0,0 -0.4089412148362525,-0.6346858468191947 l 19.323217219332047 -12.216277474534259" fill="#ffcc13" stroke="none" /><path d="M 82.05923443525364 110.91462005526583 l -32.280752766337656 19.638635278467724 a58.78522190965793,58.78522190965793 0 0,0 -0.5184832059043788,-0.8690076761940244 l 32.61401684794027 -19.08006550838759" fill="#68ff28" stroke="none" /><line stroke="#e1ed5e" stroke-width="0.3" x1="26.63291911575756" x2="22.317208475507996" y1="142.92168965132927" y2="145.44649492493687" /><path d="M 25.769776987707644 143.4266507060508 a86.0,86.0 0 0,1 -11.730757126820373,-40.83630448921669" fill="none" id="id21" stroke="none" /><text fill="#e1ed5e" style="font-size:6.75px; font-family:Arial;" text-anchor="middle"><textPath startOffset="21.46611528233685" xlink:href="#id21">September</textPath></text><path d="M 81.69416730710424 110.29060199501025 l -16.74945816471163 9.415687911974281 a40.21456550815354,40.21456550815354 0 0,0 -0.3340175670609209,-0.6063389061763553 l 16.909052141224066 -9.125978487400104" fill="#ff940d" stroke="none" /><path d="M 81.51974371655577 109.97397251340807 l -24.314241257225536 13.122630458387912 a48.62943644126638,48.62943644126638 0 0,0 -0.3912295863423465,-0.7400589386405858 l 24.536523351792766 -12.702156504661199" fill="#edff19" stroke="none" /><path d="M 81.02952815118164 109.00673069616217 l -19.00864867032598 9.024856146751628 a42.04226111285207,42.04226111285207 0 0,0 -0.30475710984876003,-0.6564197021489485 l 19.16118039701457 -8.696316377323852" fill="#ffb110" stroke="none" /><path d="M 80.87730276802145 108.67885076344099 l -32.423992208019015 14.715653660916907 a56.60710228836004,56.60710228836004 0 0,0 -0.39506073847083484,-0.8907576722627 l 32.67249403122113 -14.155347652161511" fill="#83ff25" stroke="none" /><path d="M 79.97269907076064 106.31721596034903 l -17.551452657276872 5.5362585924887755 a39.403903107317674,39.403903107317674 0 0,0 -0.19847038131031947,-0.6486126895415367 l 17.64414981109332 -5.233318930395191" fill="#ff880c" stroke="none" /><path d="M 79.76711848015287 105.62410040840567 l -17.794341791771608 4.946263577940875 a39.46900439073136,39.46900439073136 0 0,0 -0.17631729651283054,-0.6561422519685134 l 17.876847164626216 -4.639230392796823" fill="#ff890c" stroke="none" /><path d="M 79.58551787078972 104.9243191809786 l -20.39270160872321 4.919065350186944 a41.97759478161956,41.97759478161956 0 0,0 -0.1633916590974316,-0.7038869910347227 l 20.4743538337512 -4.567309701803648" fill="#ffb010" stroke="none" /><path d="M 79.50377843672027 104.57218783832718 l -17.8992862815342 3.992877360273401 a39.33923441702249,39.33923441702249 0 0,0 -0.1417448089527891,-0.662184558150737 l 17.965365129211428 -3.6841789827065003" fill="#ff870c" stroke="none" /><path d="M 79.35854240842038 103.8639653848113 l -61.68604071018303 11.547281725271187 a83.75752810413377,83.75752810413377 0 0,0 -0.2530815780515559,-1.4194158922474804 l 61.87566873057378 -10.483747082290494" fill="#4dd5ff" stroke="none" /><path d="M 79.1416061653843 102.43462659150553 l -15.614200212561796 1.8225155466911664 a36.720203917121935,36.720203917121935 0 0,0 -0.06787589545117775,-0.6284464928073551 l 15.643258409514026 -1.5534727319990294" fill="#ff5d08" stroke="none" /><path d="M 79.07016306316243 101.71520430193888 l -17.74847619471512 1.4544911560421794 a38.80797438670031,38.80797438670031 0 0,0 -0.048830487360140576,-0.6662532040262434 l 17.770883240739597 -1.1487648155191754" fill="#ff7e0b" stroke="none" /><path d="M 79.0095281055655 100.63252640178507 l -21.008882634729474 0.6330811906136233 a42.01841909739518,42.01841909739518 0 0,0 -0.015562696657839301,-0.7231373612474838 l 21.01666739407232 -0.2713540135760106" fill="#ffb010" stroke="none" /><line stroke="#e1ed5e" stroke-width="0.3" x1="15.007084014347285" x2="10.007500721073583" y1="101.09737516637583" y2="101.16192664675087" /><path d="M 14.007167355692545 101.11028546245083 a86.0,86.0 0 0,1 10.666146001902534,-42.60595125391555" fill="none" id="id22" stroke="none" /><text fill="#e1ed5e" style="font-size:6.75px; font-family:Arial;" text-anchor="middle"><textPath startOffset="22.20632615414155" xlink:href="#id22">October</textPath></text><path d="M 79.00486145842228 99.54816195383935 l -20.902353005471664 -0.44984120125947746 a41.9071929792524,41.9071929792524 0 0,0 0.02172849150782601,-0.7210628505250276 l 20.891512819508193 0.8095741992094995" fill="#ffae10" stroke="none" /><path d="M 79.03285615573316 98.82574320788736 l -21.09529812785163 -1.1814340232632243 a42.128355105267055,42.128355105267055 0 0,0 0.046781349667192405,-0.7236867734359735 l 21.071836187180025 1.5443798609522097" fill="#ffb210" stroke="none" /><path d="M 79.05617556472873 98.46500227214037 l -41.35550041369511 -3.030993664300066 a62.46642421357506,62.46642421357506 0 0,0 0.08782635327886047,-1.0717039659974352 l 41.29719957659675 3.7424115475052795" fill="#3dff2e" stroke="none" /><path d="M 79.32604984820605 96.31383870115002 l -24.615992531677403 -4.389026689956288 a46.004212517188904,46.004212517188904 0 0,0 0.14571128060370012,-0.7783954874489495 l 24.53679552716384 4.8121002548678105" fill="#ffeb16" stroke="none" /><path d="M 79.54389044137918 95.25157060432595 l -20.2134660806175 -4.692105126373582 a41.750905076868705,41.750905076868705 0 0,0 0.16852891952108057,-0.69866117312373 l 20.129704360835603 5.039351531156709" fill="#ffac0f" stroke="none" /><path d="M 79.71946130924805 94.55025226153421 l -20.12946793772968 -5.409152293384889 a41.843569943489,41.843569943489 0 0,0 0.19290529225054912,-0.6939829731388617 l 20.033375874912768 5.754846569942693" fill="#ffae10" stroke="none" /><path d="M 79.81627453868168 94.20196356495316 l -20.562400971405463 -5.906815877610757 a42.39398998599492,42.39398998599492 0 0,0 0.20751676992693463,-0.6996433860813016 l 20.457678304366823 6.259888650438598" fill="#ffb610" stroke="none" /><path d="M 79.91906864156998 93.8553929516997 l -22.070601912836484 -6.753430588114316 a44.080734249658946,44.080734249658946 0 0,0 0.22826372005340617,-0.7236583712557797 l 21.951082709014873 7.13233912579651" fill="#ffcf13" stroke="none" /><path d="M 80.14247586403 93.16781622104843 l -19.768269896214814 -6.801474947131322 a41.90561063796147,41.90561063796147 0 0,0 0.24055201234237747,-0.6800729319742632 l 19.648264803062627 7.140745505532196" fill="#ffae10" stroke="none" /><path d="M 80.65960295795068 91.81776055985345 l -19.62970294174362 -8.304634556317067 a42.31413129111937,42.31413129111937 0 0,0 0.28956827483192266,-0.6683635021590114 l 19.483843957069016 8.64129720306268" fill="#ffb510" stroke="none" /><path d="M 80.803312248108 91.48605970444005 l -21.73737101131773 -9.64076101902289 a44.7793517890961,44.7793517890961 0 0,0 0.31856816215114053,-0.7019227174899462 l 21.56820053220324 10.013505745354907" fill="#ffd914" stroke="none" /><path d="M 81.10775173730289 90.83032412892265 l -18.638973353262976 -9.04674456118273 a41.71846796505322,41.71846796505322 0 0,0 0.31912638826236256,-0.6433393253807489 l 18.4804869520472 9.366243475062442" fill="#ffac0f" stroke="none" /><path d="M 81.43458229118936 90.18545643968196 l -19.213653461860794 -10.157231138666846 a42.73324236640218,42.73324236640218 0 0,0 0.3493786480212057,-0.647345573362618 l 19.035966714621114 10.486457695361938" fill="#ffbb11" stroke="none" /><line stroke="#e1ed5e" stroke-width="0.3" x1="26.266209847984243" x2="21.928928074336255" y1="57.711370442889674" y2="55.22380399835377" /><path d="M 25.398753493254645 57.213857153982495 a86.0,86.0 0 0,1 29.58750427330803,-30.492523968695096" fill="none" id="id23" stroke="none" /><text fill="#e1ed5e" style="font-size:6.75px; font-family:Arial;" text-anchor="middle"><textPath startOffset="21.46611528233685" xlink:href="#id23">November</textPath></text><path d="M 81.96595687620814 89.24020034530311 l -54.1021293713756 -32.27939896409068 a84.0,84.0 0 0,0 0.7515368068551322,-1.2353289071717022 l 53.53847676623425 33.20589564446946" fill="#4dd2ff" stroke="none" /><path d="M 82.34701348167596 88.62581576622439 l -15.718320530323199 -10.127638933607875 a39.698520547452674,39.698520547452674 0 0,0 0.3750628594251118,-0.5712464664881722 l 15.541661035540168 10.396703464073715" fill="#ff8c0c" stroke="none" /><path d="M 83.39014120810768 87.1503855733568 l -49.43359639551299 -38.24250773972258 a83.49935880324867,83.49935880324867 0 0,0 0.889251946160307,-1.1292596666745793 l 48.76799036875872 39.08775980035021" fill="#4cd7ff" stroke="none" /><path d="M 84.07557802195018 86.31012108654704 l -18.122612225035052 -15.579615216060445 a44.8988176305752,44.8988176305752 0 0,0 0.5088706624672127,-0.5817271343885974 l 17.851749698989998 15.889257906651984" fill="#ffdb14" stroke="none" /><path d="M 84.5562425177563 85.77008943001954 l -15.261148664470772 -14.061654421877499 a41.75169351256386,41.75169351256386 0 0,0 0.4915420475895193,-0.5243427845903523 l 15.016839294910797 14.322266623345902" fill="#ffac0f" stroke="none" /><path d="M 85.57189188830299 84.74124197986013 l -14.358849467041606 -15.185512041428145 a41.899194577244366,41.899194577244366 0 0,0 0.5283131618761726,-0.49100950631551604 l 14.095328421370578 15.43042613381831" fill="#ffae10" stroke="none" /><path d="M 85.83668400450813 84.49514656593479 l -14.052991249487956 -15.384078820444673 a41.8364210989277,41.8364210989277 0 0,0 0.5358827425676014,-0.48112081737794754 l 13.786097519324382 15.6236986465919" fill="#ffad10" stroke="none" /><path d="M 86.37877921826538 84.01681056812374 l -13.535313459941243 -15.88238547165781 a41.86755564816334,41.86755564816334 0 0,0 0.5525370235158809,-0.46273386708042213 l 13.259918899466252 16.113020496132044" fill="#ffae10" stroke="none" /><path d="M 86.93701828274178 83.55741782278169 l -23.939567866714572 -30.133113591937825 a59.48515875489746,59.48515875489746 0 0,0 0.8072063664913833,-0.630037372741746 l 23.417328945063762 30.54072935390279" fill="#60ff29" stroke="none" /><path d="M 87.51073957382395 83.11751280151077 l -12.456864324071011 -16.838695431770777 a41.9455277477616,41.9455277477616 0 0,0 0.5841507641831091,-0.42441037294586076 l 12.16516824353412 17.05062503953331" fill="#ffaf10" stroke="none" /><path d="M 88.70189139769569 82.29822771554957 l -17.017001935261437 -26.662081577142246 a52.629811078962824,52.629811078962824 0 0,0 0.7678460061362564,-0.48082509860019795 l 16.555536776752938 26.95105101706537" fill="#b7ff1f" stroke="none" /><path d="M 89.00827224532344 82.1063720568725 l -9.517693778213967 -15.494021972252861 a39.18381730364962,39.18381730364962 0 0,0 0.5777522013146282,-0.3480892367785648 l 9.24957951068169 15.655557818490045" fill="#ff840c" stroke="none" /><line stroke="#e1ed5e" stroke-width="0.3" x1="56.762969772571076" x2="54.21961505331055" y1="26.818313649435495" y2="22.513508569990535" /><path d="M 56.25429882871897 25.957352633546506 a86.0,86.0 0 0,1 42.265352541879196,-11.944610805530505" fill="none" id="id24" stroke="none" /><text fill="#e1ed5e" style="font-size:6.75px; font-family:Arial;" text-anchor="middle"><textPath startOffset="22.20632615414155" xlink:href="#id24">December</textPath></text><path d="M 89.94658935756843 81.56283822128135 l -9.94968921642927 -18.246944868344706 a41.78334218868419,41.78334218868419 0 0,0 0.634420268069752,-0.3388853358376129 l 9.634123901831211 18.415508930684066" fill="#ffad10" stroke="none" /><path d="M 90.58718382345135 81.22770947309562 l -9.405352898097702 -18.757406263923322 a41.98334942013845,41.98334942013845 0 0,0 0.6488001520940999,-0.3183634169244495 l 9.081081478993175 18.916524840982603" fill="#ffb010" stroke="none" /><path d="M 92.23578459929587 80.48803036053334 l -3.7418951719424705 -9.403621772573043 a31.120764888061384,31.120764888061384 0 0,0 0.4994391278744595,-0.19377462236289386 l 3.5794728790683346 9.466639098826489" fill="#ff0000" stroke="none" /><path d="M 93.59665428221793 80.00007090966166 l -7.611873420532977 -23.774591497149544 a45.963409579353375,45.963409579353375 0 0,0 0.7555829193752664,-0.2347632910390805 l 7.201505128446982 23.90209492307115" fill="#ffeb16" stroke="none" /><path d="M 93.94186890950719 79.89281104454417 l -6.903310200400477 -22.912373559464623 a44.92974203478606,44.92974203478606 0 0,0 0.7424314286301884,-0.21673609282740994 l 6.507888554046867 23.02780798121073" fill="#ffdc14" stroke="none" /><path d="M 94.63758080256005 79.69619591428918 l -6.123502007955314 -23.185502757288646 a44.98050906360564,44.98050906360564 0 0,0 0.7502986908288036,-0.19126784238948938 l 5.723494428441511 23.287473595846997" fill="#ffdc14" stroke="none" /></svg>